# xmcd CD database file
#
# Track frame offsets:
#	150
#	5266
#	23986
#	41721
#	59512
#	77745
#	100185
#	119365
#	148239
#	158626
#	176383
#	196965
#	220335
#	241286
#	260022
#	281292
#	300285
#
# Disc length: 4163 seconds
#
# Revision: 4
# Processed by: cddbd v1.5.2PL0 Copyright (c) Steve Scherf et al.
# Submitted via: CDex 1.70beta2
#
DISCID=e5104111
DTITLE=Schiller - Sehnsucht Disc 1
DYEAR=2008
DGENRE=New Age
TTITLE0=Willkommen
TTITLE1=Herzschlag
TTITLE2=Denn Wer Liebt (Mit Anna Maria Mühe)
TTITLE3=Sehnsucht (Mit Xavier Naidoo)
TTITLE4=Wehmut
TTITLE5=Black (Mit Jette Von Roth)
TTITLE6=Mitternacht
TTITLE7=Let Me Love You (Mit Kim Sanders)
TTITLE8=Nacht (Mit Ben Becker)
TTITLE9=Fate (Mit Isis Gee)
TTITLE10=Porque Te Vas (Mit Ana Torroja)
TTITLE11=In Der Weite (Mit Anna Maria Mühe)
TTITLE12=Sommernacht
TTITLE13=Everything (Mit Helen Boulding)
TTITLE14=Lichter
TTITLE15=Ile Aye (Mit Stephenie Coker)
TTITLE16=Once Upon A Time
EXTD=YEAR: 2008
EXTT0=
EXTT1=
EXTT2=
EXTT3=
EXTT4=
EXTT5=
EXTT6=
EXTT7=
EXTT8=
EXTT9=
EXTT10=
EXTT11=
EXTT12=
EXTT13=
EXTT14=
EXTT15=
EXTT16=
PLAYORDER=
